<svg id="Layer_1" data-name="Layer 1" xmlns="http://www.w3.org/2000/svg" viewBox="0 0 88.46 57.49"><defs><style>.cls-1,.cls-2{stroke:#000;stroke-miterlimit:10;}.cls-1{stroke-width:0.5px;}.cls-3{fill:red;}.cls-4{fill:#fff;}</style></defs><path class="cls-1" d="M17.58,34.14H37.41l.19,6h-.84a7.13,7.13,0,0,0-1.57-3.65c-.63-.57-2-.85-4-.85h-2V53.54c0,1.35.21,2.19.64,2.51a5.7,5.7,0,0,0,2.77.64v.65H22.43v-.65A4.85,4.85,0,0,0,25.2,56c.37-.38.55-1.32.55-2.83V35.6h-2q-2.91,0-4,.84T18.23,40.1h-.85Z" transform="translate(-0.55 -0.42)"/><path class="cls-1" d="M38.71,56.69A5.26,5.26,0,0,0,41.22,56q.57-.48.57-2.46V37.94a3.67,3.67,0,0,0-.56-2.43,4.19,4.19,0,0,0-2.52-.72v-.65H57.34l.12,5h-.9a5,5,0,0,0-1.33-3c-.59-.45-1.92-.68-4-.68H46.48c-.51,0-.83.08-.95.25a1.67,1.67,0,0,0-.18.93v7.82h5.41c1.5,0,2.45-.22,2.86-.66a5.73,5.73,0,0,0,1-2.69h.83v8.1h-.83a5.81,5.81,0,0,0-1-2.7c-.41-.44-1.36-.66-2.84-.66H45.35v8.68q0,1.05.66,1.23A21.76,21.76,0,0,0,50,56a13.34,13.34,0,0,0,5.27-.78q1.7-.78,3.05-3.77h1l-1.59,5.92H38.71Z" transform="translate(-0.55 -0.42)"/><path class="cls-1" d="M61.56,52h.57a8.71,8.71,0,0,0,1.06,3,3.86,3.86,0,0,0,3.5,1.92,2.81,2.81,0,0,0,2-.71,2.42,2.42,0,0,0,.75-1.84A2.6,2.6,0,0,0,69,52.92a4.58,4.58,0,0,0-1.51-1.3L65.6,50.53a10.93,10.93,0,0,1-3.09-2.28,4,4,0,0,1-1-2.7,4.05,4.05,0,0,1,1.37-3.15,4.93,4.93,0,0,1,3.44-1.24,6.69,6.69,0,0,1,2,.35,10.56,10.56,0,0,0,1.22.34.87.87,0,0,0,.45-.09.71.71,0,0,0,.24-.27h.41l.12,4.77h-.53a8,8,0,0,0-.93-2.58A3.4,3.4,0,0,0,66.24,42a2.42,2.42,0,0,0-2.57,2.46c0,1,.79,2,2.36,2.81l2.26,1.22q3.64,2,3.65,4.62a4.15,4.15,0,0,1-1.51,3.3,5.9,5.9,0,0,1-4,1.29,9.28,9.28,0,0,1-2.33-.35A11.44,11.44,0,0,0,62.61,57a.49.49,0,0,0-.36.15,1,1,0,0,0-.24.35h-.45Z" transform="translate(-0.55 -0.42)"/><path class="cls-1" d="M9.39,3.17v.65A5.12,5.12,0,0,0,7.91,4a1.05,1.05,0,0,0-.79,1.06,2.52,2.52,0,0,0,.09.67c.06.21.16.49.28.83l5.08,13.19,3.7-9.83L14.63,5.64a2.62,2.62,0,0,0-1.39-1.56,4.47,4.47,0,0,0-1.66-.26V3.17H21v.65A6.33,6.33,0,0,0,19.16,4a1.14,1.14,0,0,0-.79,1.19,1.73,1.73,0,0,0,.07.54c0,.16.16.48.34,1l5.07,13.15,4.38-11.9a10.32,10.32,0,0,0,.52-1.79,4.73,4.73,0,0,0,.08-.72,1.36,1.36,0,0,0-.92-1.35,4.34,4.34,0,0,0-1.54-.26V3.17h7v.65a3.91,3.91,0,0,0-1.44.43A3.09,3.09,0,0,0,30.55,6L26.88,16.41l-1.41,4-2.22,6.33H22.7l-1.53-4L17.11,12,11.73,26.78H11.2L8.58,19.51,5.63,11.29A43.52,43.52,0,0,0,3.07,5.06,2.68,2.68,0,0,0,.8,3.82V3.17Z" transform="translate(-0.55 -0.42)"/><path class="cls-1" d="M43.2,12A6.1,6.1,0,0,1,45,16.71H34.14c.12,2.64.72,4.57,1.8,5.77a5,5,0,0,0,3.85,1.81,4.82,4.82,0,0,0,3-.94,9.26,9.26,0,0,0,2.28-2.66l.6.2a9.64,9.64,0,0,1-2.63,4,6.51,6.51,0,0,1-4.71,1.86,5.76,5.76,0,0,1-5-2.44,9.29,9.29,0,0,1-1.75-5.59,9.08,9.08,0,0,1,2-5.94,6.49,6.49,0,0,1,5.3-2.5A6,6,0,0,1,43.2,12ZM35,13.29a6.65,6.65,0,0,0-.79,2.32h7.23a7.17,7.17,0,0,0-.65-2.55A3,3,0,0,0,38,11.56,3.27,3.27,0,0,0,35,13.29Z" transform="translate(-0.55 -0.42)"/><path class="cls-2" d="M88.51.92V3.08a2.67,2.67,0,0,1-.09.69c-.1.34-10.87,14.26-16.18,20.76a4.85,4.85,0,0,0-.93,4.1.07.07,0,0,0,0,0h8.37V29H60.37v-.4h8.3s0,0,0-.05a4.32,4.32,0,0,0-1-4.06C61.82,17.92,50,4.26,49.94,4.09a2.18,2.18,0,0,1-.31-1.15v-2Z" transform="translate(-0.55 -0.42)"/><path class="cls-3" d="M51.63,3.93H88l-1.6,1.93q-6.32,7.86-12.65,15.71c-.82,1-1.59,2.1-2.42,3.12-1,1.18-1.75,1.19-2.76,0Q60.08,15,51.63,5.33c-.15-.16-1.23-1.4-1.23-1.4Z" transform="translate(-0.55 -0.42)"/><rect class="cls-4" x="53.65" y="0.73" width="29.96" height="2.06"/></svg>